<?xml version="1.0" encoding="UTF-8" standalone="no" ?>
<!DOCTYPE svg PUBLIC "-//W3C//DTD SVG 1.1//EN" "http://www.w3.org/Graphics/SVG/1.1/DTD/svg11.dtd">
<svg xmlns="http://www.w3.org/2000/svg" xmlns:xlink="http://www.w3.org/1999/xlink" version="1.1" width="1080" height="1080" viewBox="-2.2 -0.3 1080 1080" xml:space="preserve">
<desc>Created with Fabric.js 5.2.4</desc>
<defs>
</defs>
<rect x="0" y="0" width="100%" height="100%" fill="transparent"></rect>
<g transform="matrix(0 0 0 0 0 0)" id="6b76ad2f-e0c4-4b24-9d02-e86a329f2e7a"  >
</g>
<g transform="matrix(1 0 0 1 540 540)" id="52781e8e-2d22-4dfc-bd96-d2962fa7f253"  >
<rect style="stroke: none; stroke-width: 1; stroke-dasharray: none; stroke-linecap: butt; stroke-dashoffset: 0; stroke-linejoin: miter; stroke-miterlimit: 4; fill: rgb(255,255,255); fill-rule: nonzero; opacity: 1; visibility: hidden;" vector-effect="non-scaling-stroke"  x="-540" y="-540" rx="0" ry="0" width="1080" height="1080" />
</g>
<g transform="matrix(1 0 0 1 564.72 533.08)"  >
<path style="stroke: none; stroke-width: 1; stroke-dasharray: none; stroke-linecap: butt; stroke-dashoffset: 0; stroke-linejoin: miter; stroke-miterlimit: 4; fill: rgb(0,0,0); fill-rule: nonzero; opacity: 1;" vector-effect="non-scaling-stroke"  transform=" translate(-74.72, -43.08)" d="M 60.137 60.855 C 58.2542 60.855 56.3636 60.65969 54.4768 60.269059999999996 C 53.894769999999994 60.147969999999994 53.4456 59.68702999999999 53.3401 59.10106 C 52.5276 54.581559999999996 52.81666 50.26125999999999 54.19948 46.25306 C 57.07838 37.917159999999996 63.61358 33.589059999999996 66.28948 32.11606 C 66.71916999999999 31.877779999999998 67.2387 31.873869999999997 67.67228 32.104341 C 68.10586 32.334812 68.39494 32.768401 68.4379 33.256640999999995 L 68.465244 33.54180099999999 C 70.207444 31.116000999999994 72.969144 28.36990099999999 77.121444 26.81520099999999 C 84.715244 23.97540099999999 91.289444 25.15110099999999 96.13744399999999 30.20580099999999 C 96.395254 30.47533099999999 96.54369399999999 30.83861099999999 96.54369399999999 31.21360099999999 C 96.54369399999999 34.39330099999999 96.395254 36.20190099999999 93.20779399999999 39.38940099999999 C 90.215594 42.38160099999999 85.875794 43.674600999999996 81.46579399999999 43.05350099999999 C 82.77439399999999 44.03006099999999 84.14939399999999 44.17850099999999 84.87599399999999 44.17850099999999 L 84.90724399999999 44.17850099999999 C 85.473654 44.17850099999999 85.98924399999999 44.50662099999999 86.227544 45.02225099999999 C 86.465824 45.53787099999999 86.37988399999999 46.14725099999999 86.008794 46.58085099999999 C 84.235394 48.63945099999999 82.110394 50.233150999999985 79.68459399999999 51.32305099999999 C 77.036194 52.51055099999999 74.46189399999999 52.889450999999994 72.258794 52.889450999999994 L 72.153324 52.889450999999994 L 74.23532399999999 54.725350999999996 C 74.586884 55.033941 74.76657399999999 55.490981 74.719704 55.955850999999996 C 74.676735 56.420691 74.411114 56.83476099999999 74.008764 57.069151 C 71.606464 58.479351 69.020464 59.514451 66.329064 60.139451 C 64.286064 60.616011 62.219664 60.854291 60.137664 60.854291 z M 56.047200000000004 57.605 C 59.2777 58.144059999999996 62.512 58.046409999999995 65.6722 57.308119999999995 C 67.4222 56.901869999999995 69.1175 56.304219999999994 70.7425 55.51902 L 66.6683 51.925219999999996 C 66.16049 51.47991 66.02768 50.74162 66.34799 50.14792 C 66.6683 49.55417 67.35189 49.253389999999996 68.00419 49.42917 C 70.06669 49.97995 74.17608999999999 50.608869999999996 78.50018999999999 48.66745 C 79.72679 48.11667 80.86348999999998 47.40965 81.90248999999999 46.55415 C 81.17982999999998 46.29243 80.41808999999999 45.90181 79.66808999999999 45.33535 C 77.77359 43.89395 76.97668999999999 42.034549999999996 76.66808999999999 41.05415 C 76.50012 40.51509 76.656371 39.92915 77.07433999999999 39.54635 C 77.49230899999999 39.163549999999994 78.08994 39.058069999999994 78.60954 39.272909999999996 C 83.16814 41.15181 88.09394 40.39010999999999 91.15253999999999 37.32760999999999 C 93.43773999999999 35.04240999999999 93.62133999999999 34.019009999999994 93.63304 31.808109999999992 C 89.64474 27.94870999999999 84.43773999999999 27.183109999999992 78.14504 29.534709999999993 C 71.98483999999999 31.835509999999992 69.44193999999999 37.27300999999999 68.80914 38.886309999999995 C 68.56305 39.51521999999999 67.91852 39.890209999999996 67.25054 39.792559999999995 C 66.58257 39.698809999999995 66.06694 39.15584 66.00834 38.48786 L 65.76615000000001 35.858959999999996 C 62.98095000000001 37.776959999999995 58.95755000000001 41.398059999999994 56.95365000000001 47.19896 C 55.83255000000001 50.44896 55.52785000000001 53.941159999999996 56.04740000000001 57.60496 z" stroke-linecap="round" />
</g>
<g transform="matrix(1 0 0 1 546.83 547.93)"  >
<path style="stroke: none; stroke-width: 1; stroke-dasharray: none; stroke-linecap: butt; stroke-dashoffset: 0; stroke-linejoin: miter; stroke-miterlimit: 4; fill: rgb(0,0,0); fill-rule: nonzero; opacity: 1;" vector-effect="non-scaling-stroke"  transform=" translate(-56.83, -57.93)" d="M 52.016 66 C 51.86756 66 51.715219999999995 65.976562 51.56678 65.929688 C 50.80116 65.683598 50.38318 64.859388 50.63319 64.097688 C 51.80509 60.484388 53.82069 57.160188000000005 56.45349 54.484388 L 60.60579 50.28908800000001 C 61.1722 49.71877800000001 62.09409 49.71486800000001 62.66439 50.277370000000005 C 63.2347 50.84378 63.24252 51.761770000000006 62.676109 52.33597 L 58.527708999999994 56.531270000000006 C 56.21130899999999 58.886770000000006 54.43790899999999 61.812470000000005 53.402708999999994 65.00007000000001 C 53.199588999999996 65.60945000000001 52.629268999999994 66.00007000000001 52.016009 66.00007000000001 z" stroke-linecap="round" />
</g>
<g transform="matrix(1 0 0 1 548.97 557.1)"  >
<path style="stroke: none; stroke-width: 1; stroke-dasharray: none; stroke-linecap: butt; stroke-dashoffset: 0; stroke-linejoin: miter; stroke-miterlimit: 4; fill: rgb(0,0,0); fill-rule: nonzero; opacity: 1;" vector-effect="non-scaling-stroke"  transform=" translate(-58.97, -67.1)" d="M 58.973 76.086 C 58.16831 76.086 57.5199 75.43366 57.5199 74.63289999999999 L 57.515994 59.570899999999995 C 57.515994 58.766209999999994 58.168334 58.117799999999995 58.969094 58.117799999999995 C 59.773784 58.117799999999995 60.422194 58.77014 60.422194 59.570899999999995 L 60.422194 74.63289999999999 C 60.4261 75.43758999999999 59.773754 76.086 58.972994 76.086 z" stroke-linecap="round" />
</g>
<g transform="matrix(1 0 0 1 524.87 516.99)"  >
<path style="stroke: none; stroke-width: 1; stroke-dasharray: none; stroke-linecap: butt; stroke-dashoffset: 0; stroke-linejoin: miter; stroke-miterlimit: 4; fill: rgb(0,0,0); fill-rule: nonzero; opacity: 1;" vector-effect="non-scaling-stroke"  transform=" translate(-34.87, -27)" d="M 58.973 41.812 C 58.16831 41.812 57.5199 41.159659999999995 57.5199 40.3589 L 57.515994 18.913899999999998 C 57.515994 17.894399999999997 57.117554 16.9334 56.394894 16.206899999999997 C 55.676144 15.488149999999997 54.711294 15.089699999999997 53.691794 15.089699999999997 L 10.773794000000002 15.089699999999997 C 9.969104000000002 15.089699999999997 9.320694000000003 14.437359999999996 9.320694000000003 13.636599999999998 C 9.320694000000003 12.831909999999997 9.973034000000004 12.183499999999999 10.773794000000002 12.183499999999999 L 53.691794 12.183499999999999 C 55.488694 12.183499999999999 57.180094000000004 12.882719999999999 58.453494 14.152299999999999 C 59.726894 15.425699999999999 60.426194 17.117099999999997 60.426194 18.913999999999998 L 60.426194 40.355 C 60.426194 41.15969 59.773854 41.812 58.973094 41.812 z" stroke-linecap="round" />
</g>
<g transform="matrix(1 0 0 1 527.17 540)"  >
<path style="stroke: none; stroke-width: 1; stroke-dasharray: none; stroke-linecap: butt; stroke-dashoffset: 0; stroke-linejoin: miter; stroke-miterlimit: 4; fill: rgb(0,0,0); fill-rule: nonzero; opacity: 1;" vector-effect="non-scaling-stroke"  transform=" translate(-37.17, -50)" d="M 63.559 87.816 L 22.503999999999998 87.816 C 18.468799999999998 87.816 15.183699999999998 84.5308 15.183699999999998 80.4957 L 15.183699999999998 33.9997 L 4.9106999999999985 33.9997 C 4.106009999999999 33.9997 3.4575999999999985 33.347359999999995 3.4575999999999985 32.5466 L 3.4575999999999985 19.5036 C 3.4536939999999983 15.464499999999997 6.738799999999999 12.1833 10.773999999999997 12.1833 C 14.809199999999997 12.1833 18.094299999999997 15.468499999999999 18.094299999999997 19.5036 L 18.094299999999997 80.4996 C 18.094299999999997 82.9332 20.074799999999996 84.9098 22.504499999999997 84.9098 C 24.9381 84.9098 26.914699999999996 82.9293 26.914699999999996 80.4996 L 26.914699999999996 74.6363 C 26.914699999999996 73.83161000000001 27.567039999999995 73.1832 28.367799999999995 73.1832 L 69.4228 73.1832 C 70.22748999999999 73.1832 70.8759 73.83554 70.8759 74.6363 L 70.8759 80.4996 C 70.879806 84.5348 67.5986 87.816 63.5595 87.816 z M 28.343999999999994 84.9098 L 63.562999999999995 84.9098 C 65.9966 84.9098 67.97319999999999 82.9293 67.97319999999999 80.4996 L 67.97319999999999 76.0894 L 29.825199999999988 76.0894 L 29.825199999999988 80.4996 C 29.825199999999988 82.1519 29.27441999999999 83.6793 28.34469999999999 84.9098 z M 6.363999999999994 31.089800000000004 L 15.184299999999993 31.089800000000004 L 15.184299999999993 19.499800000000004 C 15.184299999999993 17.070100000000004 13.207699999999994 15.089600000000004 10.774099999999994 15.089600000000004 C 8.344399999999993 15.089600000000004 6.363899999999994 17.070100000000004 6.363899999999994 19.499800000000004 z" stroke-linecap="round" />
</g>
<g transform="matrix(1 0 0 1 527.64 512.36)"  >
<path style="stroke: none; stroke-width: 1; stroke-dasharray: none; stroke-linecap: butt; stroke-dashoffset: 0; stroke-linejoin: miter; stroke-miterlimit: 4; fill: rgb(0,0,0); fill-rule: nonzero; opacity: 1;" vector-effect="non-scaling-stroke"  transform=" translate(-37.64, -22.36)" d="M 52.91 23.816 L 22.362999999999996 23.816 C 21.558309999999995 23.816 20.909899999999997 23.16366 20.909899999999997 22.3629 C 20.909899999999997 21.55821 21.562239999999996 20.9098 22.362999999999996 20.9098 L 52.91 20.9098 C 53.71469 20.9098 54.363099999999996 21.56214 54.363099999999996 22.3629 C 54.363099999999996 23.16759 53.71075999999999 23.816 52.91 23.816 z" stroke-linecap="round" />
</g>
<g transform="matrix(1 0 0 1 527.64 519.63)"  >
<path style="stroke: none; stroke-width: 1; stroke-dasharray: none; stroke-linecap: butt; stroke-dashoffset: 0; stroke-linejoin: miter; stroke-miterlimit: 4; fill: rgb(0,0,0); fill-rule: nonzero; opacity: 1;" vector-effect="non-scaling-stroke"  transform=" translate(-37.64, -29.64)" d="M 52.91 31.09 L 22.362999999999996 31.09 C 21.558309999999995 31.09 20.909899999999997 30.43766 20.909899999999997 29.6369 C 20.909899999999997 28.83221 21.562239999999996 28.1838 22.362999999999996 28.1838 L 52.91 28.1838 C 53.71469 28.1838 54.363099999999996 28.83614 54.363099999999996 29.6369 C 54.363099999999996 30.44159 53.71075999999999 31.09 52.91 31.09 z" stroke-linecap="round" />
</g>
<g transform="matrix(1 0 0 1 527.64 526.91)"  >
<path style="stroke: none; stroke-width: 1; stroke-dasharray: none; stroke-linecap: butt; stroke-dashoffset: 0; stroke-linejoin: miter; stroke-miterlimit: 4; fill: rgb(0,0,0); fill-rule: nonzero; opacity: 1;" vector-effect="non-scaling-stroke"  transform=" translate(-37.64, -36.91)" d="M 52.91 38.363 L 22.362999999999996 38.363 C 21.558309999999995 38.363 20.909899999999997 37.71066 20.909899999999997 36.9099 C 20.909899999999997 36.10521 21.562239999999996 35.4568 22.362999999999996 35.4568 L 52.91 35.4568 C 53.71469 35.4568 54.363099999999996 36.109140000000004 54.363099999999996 36.9099 C 54.363099999999996 37.71068 53.71075999999999 38.363 52.91 38.363 z" stroke-linecap="round" />
</g>
<g transform="matrix(1 0 0 1 526.18 534.18)"  >
<path style="stroke: none; stroke-width: 1; stroke-dasharray: none; stroke-linecap: butt; stroke-dashoffset: 0; stroke-linejoin: miter; stroke-miterlimit: 4; fill: rgb(0,0,0); fill-rule: nonzero; opacity: 1;" vector-effect="non-scaling-stroke"  transform=" translate(-36.18, -44.18)" d="M 50 45.637 L 22.363 45.637 C 21.55831 45.637 20.9099 44.98466 20.9099 44.1839 C 20.9099 43.37921 21.56224 42.7308 22.363 42.7308 L 50 42.7308 C 50.80469 42.7308 51.4531 43.383140000000004 51.4531 44.1839 C 51.4531 44.984680000000004 50.80466 45.637 50 45.637 z" stroke-linecap="round" />
</g>
<g transform="matrix(1 0 0 1 525.46 541.45)"  >
<path style="stroke: none; stroke-width: 1; stroke-dasharray: none; stroke-linecap: butt; stroke-dashoffset: 0; stroke-linejoin: miter; stroke-miterlimit: 4; fill: rgb(0,0,0); fill-rule: nonzero; opacity: 1;" vector-effect="non-scaling-stroke"  transform=" translate(-35.45, -51.46)" d="M 48.547 52.91 L 22.362999999999996 52.91 C 21.558309999999995 52.91 20.909899999999997 52.257659999999994 20.909899999999997 51.4569 C 20.909899999999997 50.65221 21.562239999999996 50.0038 22.362999999999996 50.0038 L 48.547 50.0038 C 49.35169 50.0038 50.000099999999996 50.65614 50.000099999999996 51.4569 C 50.000099999999996 52.257659999999994 49.347759999999994 52.91 48.547 52.91 z" stroke-linecap="round" />
</g>
<g transform="matrix(1 0 0 1 525.46 548.73)"  >
<path style="stroke: none; stroke-width: 1; stroke-dasharray: none; stroke-linecap: butt; stroke-dashoffset: 0; stroke-linejoin: miter; stroke-miterlimit: 4; fill: rgb(0,0,0); fill-rule: nonzero; opacity: 1;" vector-effect="non-scaling-stroke"  transform=" translate(-35.45, -58.73)" d="M 48.547 60.184 L 22.362999999999996 60.184 C 21.558309999999995 60.184 20.909899999999997 59.531659999999995 20.909899999999997 58.7309 C 20.909899999999997 57.92621 21.562239999999996 57.2778 22.362999999999996 57.2778 L 48.547 57.2778 C 49.35169 57.2778 50.000099999999996 57.93014 50.000099999999996 58.7309 C 50.000099999999996 59.531659999999995 49.347759999999994 60.184 48.547 60.184 z" stroke-linecap="round" />
</g>
<g transform="matrix(1 0 0 1 524 556)"  >
<path style="stroke: none; stroke-width: 1; stroke-dasharray: none; stroke-linecap: butt; stroke-dashoffset: 0; stroke-linejoin: miter; stroke-miterlimit: 4; fill: rgb(0,0,0); fill-rule: nonzero; opacity: 1;" vector-effect="non-scaling-stroke"  transform=" translate(-34, -66)" d="M 45.637 67.453 L 22.364 67.453 C 21.55931 67.453 20.9109 66.80066000000001 20.9109 65.9999 C 20.9109 65.19521 21.56324 64.54679999999999 22.364 64.54679999999999 L 45.637 64.54679999999999 C 46.44169 64.54679999999999 47.0901 65.19913999999999 47.0901 65.9999 C 47.0901 66.80458999999999 46.44166 67.453 45.637 67.453 z" stroke-linecap="round" />
</g>
</svg>